<?xml version="1.0" standalone="no"?><!DOCTYPE svg PUBLIC "-//W3C//DTD SVG 1.1//EN" "http://www.w3.org/Graphics/SVG/1.1/DTD/svg11.dtd"><svg t="1599900570034" class="icon" viewBox="0 0 1024 1024" version="1.1" xmlns="http://www.w3.org/2000/svg" p-id="5815" xmlns:xlink="http://www.w3.org/1999/xlink" width="200" height="200"><defs><style type="text/css"></style></defs><path d="M786.935258 958.775486l-66.169025 0c-97.534384 0-176.897919-79.363536-176.897919-176.912245L543.868313 585.792657c0-21.394263 15.066137-39.275515 35.18229-43.593867 5.26798-2.191922 11.045567-3.403516 17.11275-3.403516l190.772928 0c97.549733 0 176.913269 79.356372 176.913269 176.897919l0 66.169025C963.847503 879.411951 884.484991 958.775486 786.935258 958.775486zM633.042285 627.970268l0 153.892973c0 48.374754 39.34817 87.73725 87.723947 87.73725l66.169025 0c48.375777 0 87.738273-39.362496 87.738273-87.73725l0-66.169025c0-48.368614-39.362496-87.723947-87.738273-87.723947L633.042285 627.970268z" p-id="5816"></path><path d="M307.709709 958.775486l-66.170049 0c-97.549733 0-176.912245-79.363536-176.912245-176.912245l0-66.169025c0-97.541547 79.363536-176.897919 176.912245-176.897919l190.772928 0c6.052856 0 11.843746 1.212618 17.0974 3.396353 20.13048 4.310166 35.210943 22.192442 35.210943 43.600007l0 196.069561C484.620931 879.411951 405.258419 958.775486 307.709709 958.775486zM241.53966 627.970268c-48.375777 0-87.738273 39.355333-87.738273 87.723947l0 66.169025c0 48.374754 39.362496 87.73725 87.738273 87.73725l66.170049 0c48.374754 0 87.73725-39.362496 87.73725-87.73725L395.446959 627.970268 241.53966 627.970268z" p-id="5817"></path><path d="M432.312588 478.010885 241.53966 478.010885c-97.549733 0-176.912245-79.356372-176.912245-176.897919l0-66.184375c0-97.541547 79.363536-176.897919 176.912245-176.897919l66.170049 0c97.534384 0 176.897919 79.355349 176.897919 176.897919l0 196.085934c0 21.393239-15.066137 39.274492-35.18229 43.592844C444.156334 476.79929 438.379771 478.010885 432.312588 478.010885zM241.53966 147.205667c-48.375777 0-87.738273 39.35431-87.738273 87.722924l0 66.184375c0 48.368614 39.362496 87.723947 87.738273 87.723947l153.892973 0L395.432633 234.92859c0-48.368614-39.34817-87.722924-87.722924-87.722924L241.53966 147.205667z" p-id="5818"></path><path d="M786.935258 478.010885 596.16233 478.010885c-6.052856 0-11.843746-1.212618-17.0974-3.396353-20.131503-4.310166-35.210943-22.192442-35.210943-43.600007l0-196.085934c0-97.541547 79.363536-176.897919 176.912245-176.897919l66.169025 0c97.549733 0 176.913269 79.355349 176.913269 176.897919l0 66.184375C963.847503 398.654512 884.484991 478.010885 786.935258 478.010885zM633.027959 388.836913l153.906276 0c48.375777 0 87.738273-39.355333 87.738273-87.723947l0-66.184375c0-48.368614-39.362496-87.722924-87.738273-87.722924l-66.169025 0c-48.374754 0-87.73725 39.35431-87.73725 87.722924L633.027959 388.836913z" p-id="5819"></path></svg>