<?xml version="1.0" standalone="no"?><!DOCTYPE svg PUBLIC "-//W3C//DTD SVG 1.1//EN" "http://www.w3.org/Graphics/SVG/1.1/DTD/svg11.dtd"><svg t="1622282080839" class="icon" viewBox="0 0 1024 1024" version="1.1" xmlns="http://www.w3.org/2000/svg" p-id="11015" xmlns:xlink="http://www.w3.org/1999/xlink" width="200" height="200"><defs><style type="text/css"></style></defs><path d="M426.666667 938.666667a42.666667 42.666667 0 0 1-42.666667 42.666666H149.205333A106.538667 106.538667 0 0 1 42.666667 874.517333v-362.666666c0-47.744 27.328-106.816 63.786666-137.792L484.352 52.821333a42.666667 42.666667 0 0 1 55.253333 0L917.546667 374.058667c36.48 31.061333 63.786667 89.984 63.786666 137.813333v362.666667A106.624 106.624 0 0 1 874.645333 981.333333H640a42.666667 42.666667 0 0 1-42.666667-42.666666V682.666667h-170.666666v256z m447.978666-42.666667A21.290667 21.290667 0 0 0 896 874.517333v-362.666666c0-22.784-16.277333-57.941333-33.706667-72.768L512 141.333333 161.706667 439.082667C144.341333 453.845333 128 489.152 128 511.850667v362.666666A21.205333 21.205333 0 0 0 149.205333 896H341.333333V640a42.666667 42.666667 0 0 1 42.666667-42.666667h256a42.666667 42.666667 0 0 1 42.666667 42.666667v256h191.978666z" fill="" p-id="11016"></path></svg>