<?xml version="1.0" standalone="no"?><!DOCTYPE svg PUBLIC "-//W3C//DTD SVG 1.1//EN" "http://www.w3.org/Graphics/SVG/1.1/DTD/svg11.dtd"><svg t="1599901197011" class="icon" viewBox="0 0 1024 1024" version="1.1" xmlns="http://www.w3.org/2000/svg" p-id="7722" xmlns:xlink="http://www.w3.org/1999/xlink" width="200" height="200"><defs><style type="text/css"></style></defs><path d="M255.9 320H512v64H255.9z" fill="" p-id="7723"></path><path d="M896 640V128H640V64H320L128 256v384H64v192c0 70.7 57.3 128 128 128h640c70.7 0 128-57.3 128-128V640h-64z m-64-448v448h-64V192h64z m-128 0v448h-64V192h64z m-512 90.5l26.5-26.5H320V154.5l26.5-26.5H576h-0.4v512H192V282.5zM640 832H384v-64h256v64z" fill="" p-id="7724"></path><path d="M255.3 448h256.1v64H255.3z" fill="" p-id="7725"></path></svg>