<?xml version="1.0" standalone="no"?>
<!DOCTYPE svg PUBLIC "-//W3C//DTD SVG 1.1//EN" "http://www.w3.org/Graphics/SVG/1.1/DTD/svg11.dtd"><svg t="1599900949665"
  class="icon" viewBox="0 0 1024 1024" version="1.1" xmlns="http://www.w3.org/2000/svg" p-id="6631"
  xmlns:xlink="http://www.w3.org/1999/xlink" width="200" height="200">
  <defs>
    <style type="text/css"></style>
  </defs>
  <path
    d="M64.8 158.7V479h273.5v-68.8H133.6V158.7c0-10.2 8.3-18.5 18.5-18.5h258.4v196.1h68.8V71.4H152.1c-48.1 0-87.3 39.2-87.3 87.3zM869.8 71.4H549.2v402.5H618V140.2h251.8c10.4 0 18.8 8.5 18.8 18.8v251.2h-65.4V479h134.2V159c0.1-48.2-39.2-87.6-87.6-87.6zM66.4 863c0 48.1 39.2 87.3 87.3 87.3h322.2v-68.8H160.7c-10.2 0-18.5-8.3-18.5-18.5V616.7h268.3v203h68.8V547.9H66.4V863zM618 616.7h135.4v-68.8H549.2v201.2H618zM830.2 821.3h58.5v49.8c0 5.8-4.7 10.4-10.4 10.4h-122V688.9h-68.8v129H549.2v134.2H618v-65.4h135.3v63.6h124.9c43.7 0 79.2-35.5 79.2-79.2V752.5H830.2v68.8z"
    p-id="6632"></path>
  <path
    d="M204.1 200.4h137.6V338H204.1zM689.2 200.4h135.9v135.9H689.2zM204.1 682h137.6v137.6H204.1zM825.1 616.7h65.4v65.4h-65.4zM890.4 547.9h64.5v64.5h-64.5zM412.3 406.8h67.1v67.1h-67.1zM689.2 406.8h67.9v67.9h-67.9z"
    p-id="6633"></path>
</svg>